<svg xmlns="http://www.w3.org/2000/svg" viewBox="0 0 220 64" fill="none">
  <!-- Brain icon -->
  <g transform="translate(0, 0)">
    <path d="M30 8 C22 8 16 12 12 18 C8 24 8 32 10 38 C12 44 14 50 20 54 C24 57 28 58 30 58" stroke="#c5ff3d" stroke-width="2.2" stroke-linecap="round" stroke-linejoin="round"/>
    <path d="M34 8 C42 8 48 12 52 18 C56 24 56 32 54 38 C52 44 50 50 44 54 C40 57 36 58 34 58" stroke="#c5ff3d" stroke-width="2.2" stroke-linecap="round" stroke-linejoin="round"/>
    <path d="M32 6 C31 16 33 28 31 38 C33 48 32 56 32 60" stroke="#c5ff3d" stroke-width="1.5" stroke-linecap="round" opacity="0.5"/>
    <path d="M14 24 C18 20 24 22 28 26" stroke="#c5ff3d" stroke-width="1.5" stroke-linecap="round" opacity="0.4"/>
    <path d="M12 34 C16 30 22 32 28 34" stroke="#c5ff3d" stroke-width="1.5" stroke-linecap="round" opacity="0.4"/>
    <path d="M14 44 C18 40 24 42 28 44" stroke="#c5ff3d" stroke-width="1.5" stroke-linecap="round" opacity="0.4"/>
    <path d="M50 24 C46 20 40 22 36 26" stroke="#c5ff3d" stroke-width="1.5" stroke-linecap="round" opacity="0.4"/>
    <path d="M52 34 C48 30 42 32 36 34" stroke="#c5ff3d" stroke-width="1.5" stroke-linecap="round" opacity="0.4"/>
    <path d="M50 44 C46 40 40 42 36 44" stroke="#c5ff3d" stroke-width="1.5" stroke-linecap="round" opacity="0.4"/>
  </g>
  <!-- Text -->
  <text x="72" y="40" font-family="'Space Grotesk', sans-serif" font-size="28" font-weight="600" fill="#f5f5f7" letter-spacing="-0.5">cortex</text>
</svg>
