<svg xmlns="http://www.w3.org/2000/svg" viewBox="130 30 280 340" fill="none">
  <!-- Traced from Wikimedia Commons: Encephalon_human_sagittal_section (CC BY-SA 3.0, Jmarchn) -->

  <path d="m 180.1892,183.15759 c 2.92941,4.62154 3.17171,7.54789 3.36978,14.70893 0.13393,5.42181 -0.26025,7.35565 -0.0681,10.02903 -1.16409,3.72061 -3.17439,7.73367 -7.13241,12.27529 -4.28615,4.8054 -9.36827,9.70216 -13.16268,13.59609 -4.57202,1.90564 -9.47419,2.52684 -15.30102,4.00011 -10.07246,1.28347 -13.28721,-1.0123 -22.63092,0.26469 -6.89302,-1.72179 -12.3649,0.91209 -18.44728,-2.77561 -13.444741,-4.18935 -20.783715,-3.44067 -34.721913,0.046 -8.806543,-1.57294 -16.507162,-3.10969 -22.058895,-11.49431 -17.506439,-7.59229 -16.232668,-21.53464 -17.951963,-31.26216 -2.313114,-5.10426 -3.87118,-10.28692 -1.621998,-25.53923 -3.418334,-12.23635 3.654559,-20.37008 7.775043,-28.66034 -1.656024,-6.0355 0.409348,-10.31132 2.071167,-14.25285 C 47.01568,108.51321 53.855042,99.201108 65.602567,87.439316 76.554254,77.697438 81.984343,73.785349 94.430686,67.669194 101.57494,61.622733 115.9948,55.579404 122.48745,54.944452 c 5.00713,-3.091273 9.96489,-4.998432 14.58001,-7.889971 7.34612,2.590781 16.1216,1.038929 22.97702,0.451823 3.8462,-4.790068 9.67905,-4.309728 16.50486,-2.963101 10.22301,-0.129117 21.48237,-7.518416 32.82149,-2.68803 5.92466,-5.228782 28.09206,1.809366 30.93001,1.896996 4.28218,-0.763867 2.52974,-2.685415 16.22906,-0.124512 12.08035,9.781892 28.74016,5.276959 41.14519,14.264844 8.85986,5.935967 14.6506,9.337989 20.97085,14.710148 2.50765,2.131484 3.6433,6.319545 7.30203,8.441129 1.03019,-9.216268 27.51829,20.030082 29.16,26.372312 5.9295,6.55544 16.89023,16.62166 21.4147,28.44485 4.26433,6.10932 8.21747,11.87401 11.22311,16.11236 6.83238,13.62348 2.17156,28.58613 3.63371,42.98052 -0.13838,13.88623 -13.1667,36.0129 -28.46211,23.2409 -10.61353,-7.41236 -26.06042,-22.44722 -40.16149,-28.33716 -12.95885,-6.9821 -24.94302,-11.61672 -31.35533,-13.95846 -4.11807,0.73142 -11.1368,-0.16353 -16.27547,-1.14414 -0.75127,4.3459 -7.98432,9.25479 -10.79285,8.86227 -6.6792,-0.93348 -14.58848,-7.41569 -4.339,-13.50219 -0.18783,-3.13166 1.06565,-4.20076 -0.0473,-9.79237 -15.17502,-10.50302 -15.10713,-9.0754 -33.62685,-16.18014 -13.76957,-3.86061 -18.82067,-3.38188 -27.84535,-1.1772 -5.61339,1.37132 -11.36572,4.22132 -15.03144,8.6355 -6.75584,8.13524 -7.45274,19.38799 -3.2531,31.55676 z" stroke="#c5ff3d" stroke-width="2.5" fill="none" opacity="0.95"/>
  <path d="m 276.16592,240.27675 c -3.21295,-0.67266 -4.96216,-1.01199 -9.4001,-2.93558 -2.16018,-0.93632 -7.70659,-6.64186 -4.80292,-8.9267 2.11134,-1.66137 18.60857,9.3234 18.00938,9.03726 -2.81438,-1.34399 -9.32568,-2.72712 -10.36632,-6.12458 -0.87858,-4.22671 -5.94313,-6.43593 -3.19777,-10.6086 -2.75513,-3.22238 0.3961,-8.07449 -0.90602,-12.01039 1.85966,-5.54714 8.79853,-3.54015 10.2398,-8.65344 3.82659,-1.87718 7.30454,-4.09044 9.51132,-7.67301 2.27953,-1.48515 5.78759,-2.46054 6.87819,-0.42046 1.15248,2.15582 2.23389,5.66251 3.74398,6.34747 -0.15591,-2.20729 -0.76312,-4.0155 1.39096,-5.95604 4.64212,-3.42583 9.49969,1.43111 14.45082,1.52407 3.045,0.83683 3.30026,1.76794 4.06105,3.95665 4.17845,0.0168 8.98925,3.01863 11.74949,5.53519 0.44559,3.98001 5.78991,1.19353 8.42037,3.39789 3.68319,1.69605 4.00007,6.75454 9.02919,6.74877 1.78427,3.1063 2.8556,4.75825 6.88639,5.80864 1.96404,2.90813 3.18259,5.04339 6.11607,7.37898 1.04888,3.16504 4.8111,5.81244 3.08758,9.69953 -1.31341,5.0084 -1.18897,9.58988 -3.35858,14.09269 -0.82332,2.84024 -0.76319,6.96474 -4.67971,7.20036 1.35674,5.6642 -6.31393,7.50721 -8.31973,11.88024 -3.40975,3.26139 -6.2168,6.90077 -8.72515,10.78124 -3.46325,-1.46358 -5.59426,2.62474 -8.60738,1.14943 -2.17552,4.85776 -9.04835,2.49516 -12.50066,5.67988 -2.34555,3.37727 -6.89405,0.83736 -8.27357,0.1564 -3.08401,4.27635 -8.48918,2.33528 -12.57204,0.94095 -3.79608,2.40624 -8.49031,-1.37499 -8.8185,-5.40257 -1.14163,-2.12304 -1.94877,3.81491 -4.76674,7.8138 -5.005,1.07455 -8.56991,-13.60377 -8.86299,-17.7736 -0.13666,-6.48462 -0.87335,-17.38565 1.9244,-23.41695 7.99115,-9.85486 8.14593,-7.86991 9.92011,-8.42515 -2.73388,-0.51463 -4.87755,-0.30339 -7.26092,-0.80237 z" stroke="#c5ff3d" stroke-width="1.8" fill="none" opacity="0.7"/>
  <path d="m 183.73789,151.28351 c 9.88499,-7.83609 22.0725,-12.66184 41.55309,-6.95084 16.1381,4.82867 25.77058,9.30163 34.47006,16.93641 0.47375,3.00152 0.86325,6.30093 -1.00528,8.95138 -1.88189,2.66942 -6.84847,4.18609 -1.78036,9.12484 l -10.15416,3.55243 c 6.72929,2.7998 14.35354,5.42061 11.64128,10.10873 -3.21672,3.12385 -6.95357,5.42415 -17.84708,-3.60692 -4.11467,0.51696 -6.71368,2.36013 -5.63841,7.41829 l -5.62517,1.78743 -15.50838,1.89288 -5.47085,5.12053 -1.15463,7.67001 c -2.05789,-0.0295 -3.90518,0.7835 -5.31357,3.35206 0.83323,4.89218 4.6452,8.3255 0.59326,10.99182 -4.2617,2.80436 -4.44859,1.01587 -7.25978,-3.27284 l -15.5103,14.70292 c 5.84776,2.10497 6.58366,5.33192 5.66958,8.65847 -1.15571,4.20591 -7.54753,6.89484 -11.75568,5.74733 -4.33448,-1.18196 -8.57205,-6.90261 -7.42737,-11.24709 0.87103,-3.30586 6.82687,-5.72159 9.13509,-4.66226 2.16784,-4.41766 1.22921,-7.68973 2.30265,-9.1264 8.07172,-10.80308 -1.07464,-7.59824 0.67132,-9.54371 6.17681,-6.88262 5.97533,-14.92597 5.67974,-20.70369 -0.2626,-5.13306 0.62225,-7.6911 -2.37172,-13.23395 -5.21327,-9.65156 -5.35689,-22.76926 2.10667,-33.66783 z" stroke="#c5ff3d" stroke-width="1.5" fill="none" opacity="0.65"/>
  <path d="m 263.81775,226.99082 c -4.23056,-2.28879 -3.35848,6.66613 -6.34886,0.0776 -2.356,-3.5855 -7.20522,-7.30978 -4.08439,-11.94106 4.90946,-6.90075 -4.66173,-5.88668 -6.56766,-9.48465 2.98178,-8.00905 -4.60119,-10.0776 -10.60016,-8.48401 -5.56287,-7.56664 7.87233,-10.40201 10.97598,-3.1122 7.3576,5.78115 18.1233,-6.15656 6.17166,-8.10274 -4.16912,-2.01566 -9.08919,-3.17238 -2.01893,-4.71741 7.09373,-7.9415 11.82275,8.77293 19.75047,0.14313 3.59056,-3.97727 5.67594,-8.12802 11.8125,-4.90309 15.09861,-0.0358 28.52252,8.2401 41.32198,15.31586 13.51251,7.58433 24.73457,18.49814 37.84196,26.62245 3.76072,1.89217 4.86278,2.43969 9.86056,3.21564 -2.709,0.71397 -12.1603,3.47977 -14.52252,4.11042 -1.34225,-1.29943 -2.06806,-2.67319 -3.24069,-4.25078 -1.5272,-1.28838 -4.17749,-2.53739 -7.29981,-3.75143 -1.03707,-2.47385 -3.57991,-5.1384 -6.1622,-5.6672 -1.27973,-5.05016 -8.73898,-6.38346 -11.622,-6.1874 -1.28821,-3.68813 -7.94572,-9.23605 -12.80969,-7.75954 -0.84761,-4.90778 -19.46403,-10.49197 -22.027,-2.90026 -2.74818,-6.38806 -9.87081,-3.19254 -14.58313,2.43198 -3.70279,2.75242 -6.34975,5.08397 -6.34975,5.08397 0,0 -10.4454,4.80633 -8.45268,12.2291 -2.27203,6.41249 6.01338,18.23536 5.59516,19.39639 -3.06705,-1.50529 -4.43501,-4.91087 -6.6408,-7.36474 z m -112.48779,45.8059 c -9.8261,-0.47446 -20.97844,-6.0609 -21.91888,-16.98874 -0.22968,-4.87213 -1.44219,-14.87748 3.75098,-16.52803 10.19529,1.51785 19.74551,-2.92421 29.53696,-4.93229 4.81068,1.52945 11.03488,0.5571 14.16664,-4.38869 0.64173,6.48124 -2.50375,7.31205 -7.73319,7.76506 -9.96439,9.01167 7.15561,23.56042 15.03865,12.2663 5.57204,-6.53524 -9.82786,-10.47234 0.23181,-15.05151 3.50454,-3.60831 7.30151,-6.9128 10.96509,-10.35587 3.36048,10.55756 15.15306,-0.87345 6.83546,-7.06504 5.18694,-9.63837 11.85725,5.96485 16.12782,9.79102 3.99628,3.25338 1.97767,4.07062 -2.29393,3.97535 -11.00354,0.90912 -14.54565,14.65954 -10.57511,23.44529 -0.0837,3.52423 7.23142,10.35874 0.95696,10.71663 -17.80099,5.16269 -36.49221,8.70856 -55.08926,7.35052 z" stroke="#c5ff3d" stroke-width="1" fill="none" opacity="0.7"/>
  <path d="m 391.39991,181.92735 c -0.47989,20.21094 -6.08486,32.7884 -12.18338,37.18067 -6.16812,4.4424 -17.96666,-0.37737 -24.74523,-6.54935 -14.58646,-12.24052 -27.2406,-20.78804 -44.19393,-29.36805 -8.66825,-3.12964 -16.45439,-8.33109 -25.27744,-7.136 -3.45376,0.46781 -5.34683,-0.63627 -8.80909,-1.03637" stroke="#c5ff3d" stroke-width="1.5" fill="none" opacity="0.6"/>
  <path d="path3588" stroke="#c5ff3d" stroke-width="1.5" fill="none" opacity="0.6"/>
  <path d="m 267.58111,278.46696 c 2.53332,11.51838 4.10135,34.08732 4.52502,51.22286 0.39949,16.15735 -1.5435,31.6372 -1.87459,48.4506" stroke="#c5ff3d" stroke-width="1.5" fill="none" opacity="0.6"/>
  <path d="path3062" stroke="#c5ff3d" stroke-width="1.5" fill="none" opacity="0.6"/>
  <path d="m 259.5387,162.30548 c -1.22587,-3.78127 -6.51993,-7.60315 -9.4823,-9.25029 -7.38158,-4.10432 -28.80031,-12.64109 -43.74636,-10.9991 -9.13096,1.00313 -19.39358,4.8141 -24.62958,12.36161 -4.62998,6.67395 -3.36255,16.13977 -2.61195,24.22772 0.22661,2.4418 2.12114,7.04446 2.12114,7.04446 3.71732,4.40141 9.27324,2.68902 8.09428,-1.92332 0,0 -2.90638,-4.91117 -3.26056,-7.66507 -0.80819,-6.28398 -0.71201,-13.51229 2.77221,-18.80396 3.73564,-5.67352 10.63475,-9.64424 17.34561,-10.69693 13.87394,-2.17632 24.99956,3.02605 40.90906,10.07238 3.67053,1.62568 7.24665,4.38074 9.73845,8.3825" stroke="#c5ff3d" stroke-width="1.5" fill="none" opacity="0.6"/>
  <path d="path3889" stroke="#c5ff3d" stroke-width="1.5" fill="none" opacity="0.6"/>
  <path d="m 219.09109,164.88462 c -0.6504,3.72102 -5.43305,5.99369 -10.68235,5.07615 -5.24929,-0.91753 -8.97743,-4.67783 -8.32702,-8.39884 0.65041,-3.72102 5.43306,-5.99369 10.68235,-5.07615 5.2493,0.91753 8.97744,4.67782 8.32702,8.39884 z" stroke="#c5ff3d" stroke-width="1.5" fill="none" opacity="0.6"/>
  <path d="m 240.36482,44.017962 c 2.31902,-1.727455 6.64173,-1.851967 12.21366,-0.977093 5.53686,3.234377 10.34089,5.461169 15.87775,7.083922 4.64949,1.179875 10.07567,2.873209 14.41212,5.618284 2.25332,1.905969 4.84022,3.394953 5.86256,6.839649 0.83404,3.343803 -2.64907,11.399415 -6.3511,17.099123 -2.31765,5.298476 -5.51527,8.837011 -8.79384,12.21366 -4.05046,4.091979 -5.8652,10.419673 -8.42742,15.999893 -1.5328,1.58985 -2.86437,3.78339 -5.0076,3.54196" stroke="#c5ff3d" stroke-width="1.5" fill="none" opacity="0.6"/>
  <path d="m 323.70862,81.441119 c 0.99115,-0.645351 5.04547,-4.261421 9.65169,2.406794 6.9788,10.102912 18.36325,12.987923 21.42045,23.011487 1.45735,4.7782 2.28664,14.39336 -2.35103,14.80095 -2.52741,1.17157 -5.43438,3.85477 -7.62175,8.96592 -1.83042,2.46554 -6.46241,4.08875 -8.85154,7.33301 -4.67622,9.69677 -12.5162,15.65723 -23.03937,18.44887 -6.2909,2.77271 -11.89935,5.01549 -19.07811,2.75285" stroke="#c5ff3d" stroke-width="1.5" fill="none" opacity="0.6"/>
  <path d="m 100.8727,233.74551 c 12.68398,3.08356 25.28032,4.9283 37.29856,5.05849 11.87467,0.12863 16.50058,-2.3859 25.90225,-4.93995" stroke="#c5ff3d" stroke-width="1.5" fill="none" opacity="0.6"/>
  <path d="m 266.89682,268.81591 c -0.16903,-3.49055 0.15031,-2.86429 0.50231,-6.8499 -0.10418,-8.31998 13.54749,-22.39657 15.67413,-20.72454 m -20.03294,105.84797 4.91001,-41.34144 c 0.70664,-17.06791 -0.33983,-23.28276 -0.70806,-30.88663" stroke="#c5ff3d" stroke-width="1.5" fill="none" opacity="0.6"/>
  <path d="m 144.10902,129.18586 3.01881,3.19477 c 1.71552,3.26525 -0.20722,5.74305 -1.81218,8.12448" stroke="#c5ff3d" stroke-width="1.5" fill="none" opacity="0.6"/>
  <path d="m 273.53807,221.53643 c -11.79859,4.72322 -11.45135,15.98228 -12.33992,24.99567 0.19719,8.18212 -0.86596,16.9509 8.06676,24.23734 4.12629,2.09144 4.47356,-5.26468 6.18393,-9.21305 -0.3687,3.71036 1.78234,6.59162 4.69067,7.34995 2.05409,0.52231 2.73317,-0.24592 4.78726,-0.33281 2.38422,0.66226 4.53162,2.51676 7.10316,1.96845 1.8691,-0.39854 3.82921,-1.41237 5.59658,-2.89996 3.66351,3.77723 6.45202,0.49142 10.11552,-1.81888 l 6.49593,-0.74131 c 2.31582,-0.86141 2.89714,-2.06971 3.5988,-3.25395 1.46379,1.22909 2.92757,0.95072 4.39136,-0.82019 1.87138,0.30512 3.66888,0.42554 4.88318,-0.91205 l 3.71908,-5.81786 c 2.08026,-2.24405 3.52168,-1.64771 5.01097,-5.36919 2.78996,-3.75232 7.78705,-5.0771 8.4716,-10.63405 2.40159,-0.98322 3.46816,-2.9621 3.59871,-5.56094 1.22415,-2.37568 1.82873,-4.79919 1.41534,-7.82989 2.37171,-2.74302 1.96384,-7.57074 2.94561,-11.35622 -0.80149,-1.82847 -1.70371,-3.60656 -3.1642,-5.10552 l -6.12105,-7.92414 -5.64622,-2.58169 c 0.22181,-3.71481 -3.28242,-4.38103 -6.62274,-5.18135 -0.83467,-3.79233 -2.9841,-6.81772 -11.73368,-5.99302 1.0067,-3.20745 -2.68058,-3.54502 -4.98387,-4.99355 -1.2947,-1.91055 -4.51236,-5.21526 -7.60559,-1.44793 -0.51459,-1.42251 -0.46399,-3.28948 -2.16013,-4.3322 -2.86101,-1.75884 -8.3538,-2.72973 -13.48568,-4.57902 -6.84275,2.43324 -3.88537,5.35649 -4.74523,8.08888 -1.05475,-0.15069 -2.50181,-2.2042 -2.11694,-4.17371 0.46782,-2.39395 -1.86062,-3.46376 -4.38214,-3.72386 0.43639,-0.5405 -4.81036,-0.0518 -5.98811,3.93007 -0.30518,1.03181 -2.25292,2.27447 -3.74972,3.72814 -1.95567,-0.33307 -3.84509,1.7061 -5.55852,4.74899 -3.48715,-0.31265 -10.44179,2.74021 -7.57968,9.8459 -1.86586,3.27014 -0.17134,7.64896 0.46842,7.13715 0,0 -1.21746,1.48572 -1.22137,3.17555 0.36111,1.54839 0.91615,3.04829 2.56487,4.27478 l 1.70992,4.27478 3.66409,3.6641 6.22897,1.58778 -6.59538,-0.85496 c -5.66211,-2.40299 -6.10851,-8.73924 -10.25947,-9.40452 -3.01321,0.92013 -3.28684,3.04708 -2.29488,4.6203" stroke="#c5ff3d" stroke-width="1.5" fill="none" opacity="0.6"/>
  <path d="path13" stroke="#c5ff3d" stroke-width="0.8" fill="none" opacity="0.7"/>
  <path d="path15" stroke="#c5ff3d" stroke-width="0.8" fill="none" opacity="0.7"/>
  <path d="path17" stroke="#c5ff3d" stroke-width="0.8" fill="none" opacity="0.7"/>
  <path d="path19" stroke="#c5ff3d" stroke-width="0.8" fill="none" opacity="0.7"/>
  <path d="path21" stroke="#c5ff3d" stroke-width="0.8" fill="none" opacity="0.7"/>
  <path d="path23" stroke="#c5ff3d" stroke-width="0.8" fill="none" opacity="0.7"/>
  <path d="path27" stroke="#c5ff3d" stroke-width="0.8" fill="none" opacity="0.7"/>
  <path d="path29" stroke="#c5ff3d" stroke-width="0.8" fill="none" opacity="0.7"/>
  <path d="path31" stroke="#c5ff3d" stroke-width="0.8" fill="none" opacity="0.7"/>
  <path d="path33" stroke="#c5ff3d" stroke-width="0.8" fill="none" opacity="0.7"/>
  <path d="path35" stroke="#c5ff3d" stroke-width="0.8" fill="none" opacity="0.7"/>
  <path d="path37" stroke="#c5ff3d" stroke-width="0.8" fill="none" opacity="0.7"/>
  <path d="path39" stroke="#c5ff3d" stroke-width="0.8" fill="none" opacity="0.7"/>
  <path d="path41" stroke="#c5ff3d" stroke-width="0.8" fill="none" opacity="0.7"/>
  <path d="path43" stroke="#c5ff3d" stroke-width="0.8" fill="none" opacity="0.7"/>
  <path d="path45" stroke="#c5ff3d" stroke-width="0.8" fill="none" opacity="0.7"/>
  <path d="path49" stroke="#c5ff3d" stroke-width="0.8" fill="none" opacity="0.7"/>
  <path d="path55" stroke="#c5ff3d" stroke-width="0.8" fill="none" opacity="0.7"/>
  <path d="path57" stroke="#c5ff3d" stroke-width="0.8" fill="none" opacity="0.7"/>
  <path d="path59" stroke="#c5ff3d" stroke-width="0.8" fill="none" opacity="0.7"/>
  <path d="path61" stroke="#c5ff3d" stroke-width="0.8" fill="none" opacity="0.7"/>
  <path d="path63" stroke="#c5ff3d" stroke-width="0.8" fill="none" opacity="0.7"/>
  <path d="path67" stroke="#c5ff3d" stroke-width="0.8" fill="none" opacity="0.7"/>
  <path d="path89" stroke="#c5ff3d" stroke-width="0.8" fill="none" opacity="0.7"/>
  <path d="path91" stroke="#c5ff3d" stroke-width="0.8" fill="none" opacity="0.7"/>
  <path d="path115" stroke="#c5ff3d" stroke-width="0.8" fill="none" opacity="0.7"/>
  <path d="path117" stroke="#c5ff3d" stroke-width="0.8" fill="none" opacity="0.7"/>
  <path d="path119" stroke="#c5ff3d" stroke-width="0.8" fill="none" opacity="0.7"/>
  <path d="path121" stroke="#c5ff3d" stroke-width="0.8" fill="none" opacity="0.7"/>
  <path d="path123" stroke="#c5ff3d" stroke-width="0.8" fill="none" opacity="0.7"/>
  <path d="path125" stroke="#c5ff3d" stroke-width="0.8" fill="none" opacity="0.7"/>
  <path d="path127" stroke="#c5ff3d" stroke-width="0.8" fill="none" opacity="0.7"/>
  <path d="path129" stroke="#c5ff3d" stroke-width="0.8" fill="none" opacity="0.7"/>
  <path d="path131" stroke="#c5ff3d" stroke-width="0.8" fill="none" opacity="0.7"/>
  <path d="path133" stroke="#c5ff3d" stroke-width="0.8" fill="none" opacity="0.7"/>
  <path d="path135" stroke="#c5ff3d" stroke-width="0.8" fill="none" opacity="0.7"/>
  <path d="path137" stroke="#c5ff3d" stroke-width="0.8" fill="none" opacity="0.7"/>
  <path d="path139" stroke="#c5ff3d" stroke-width="0.8" fill="none" opacity="0.7"/>
  <path d="path141" stroke="#c5ff3d" stroke-width="0.8" fill="none" opacity="0.7"/>
  <path d="path145" stroke="#c5ff3d" stroke-width="0.8" fill="none" opacity="0.7"/>
  <path d="path147" stroke="#c5ff3d" stroke-width="0.8" fill="none" opacity="0.7"/>
  <path d="path149" stroke="#c5ff3d" stroke-width="0.8" fill="none" opacity="0.7"/>
  <path d="path151" stroke="#c5ff3d" stroke-width="0.8" fill="none" opacity="0.7"/>
  <path d="path153" stroke="#c5ff3d" stroke-width="0.8" fill="none" opacity="0.7"/>
  <path d="path155" stroke="#c5ff3d" stroke-width="0.8" fill="none" opacity="0.7"/>
  <path d="m 285.5625,179.34375 c 0.84753,1.76674 1.26993,3.68323 0.78125,5.59375 -0.51256,0.79548 -1.5409,1.12108 -2.5,1.34375 -0.16694,0.0294 -0.27966,0.17558 -0.25,0.34375 0.0297,0.16818 0.18917,0.27726 0.34375,0.25 1.55356,-0.0763 3.60995,-0.78333 3.65625,-2.625 0.0366,-1.60025 0.0373,-3.10157 -0.6875,-4.5 -0.1299,-0.16215 -0.1871,-0.24764 -0.3125,-0.40625 z" stroke="#c5ff3d" stroke-width="0.8" fill="none" opacity="0.7"/>
  <path d="m 269.96875,179.34375 c -0.17572,0.21671 -0.25548,0.24144 -0.4375,0.46875 0.60658,2.5362 2.95263,4.14821 5.125,5.09375 0.0611,0.0428 0.11565,0.011 0.15625,-0.0625 0.0413,-0.0621 0.041,-0.11544 -0.0312,-0.15625 -1.9614,-1.10132 -4.27687,-2.54005 -4.53125,-5.03125 0.0394,-0.13205 0.11477,-0.18507 0.15625,-0.3125 h -0.4375 z" stroke="#c5ff3d" stroke-width="0.8" fill="none" opacity="0.7"/>
  <path d="m 269.96875,179.34375 h 0.4375 c 0.13607,-0.41802 0.34282,-0.66175 0.5,-1.03125 -0.35366,0.42195 -0.55555,0.5602 -0.9375,1.03125 z" stroke="#c5ff3d" stroke-width="0.8" fill="none" opacity="0.7"/>
  <path d="path159" stroke="#c5ff3d" stroke-width="0.8" fill="none" opacity="0.7"/>
  <path d="path161" stroke="#c5ff3d" stroke-width="0.8" fill="none" opacity="0.7"/>
  <path d="path163" stroke="#c5ff3d" stroke-width="0.8" fill="none" opacity="0.7"/>
  <path d="path165" stroke="#c5ff3d" stroke-width="0.8" fill="none" opacity="0.7"/>
  <path d="m 305.78125,180.3125 c -0.0567,1.32809 -0.4111,2.63142 -1.15625,3.75 -0.052,0.0882 -0.0593,0.1684 0.0312,0.21875 0.0778,0.0653 0.19703,0.0444 0.25,-0.0312 0.93971,-1.13319 1.50968,-2.49427 1.65625,-3.90625 l -0.78125,-0.0312 z" stroke="#c5ff3d" stroke-width="0.8" fill="none" opacity="0.7"/>
  <path d="m 286.25,179.5 c 0.18212,0.53563 0.30168,1.07051 0.5,1.59375 0.13794,0.33396 0.075,0.73027 0.125,1.09375 -0.002,0.0679 0.0582,0.12274 0.125,0.125 0.0667,0.002 0.12521,-0.0275 0.125,-0.0937 0.0785,-0.38616 0.0971,-0.7828 0.0312,-1.15625 -0.10702,-0.52067 -0.26109,-1.03979 -0.40625,-1.5625 h -0.5 z" stroke="#c5ff3d" stroke-width="0.8" fill="none" opacity="0.7"/>
  <path d="path169" stroke="#c5ff3d" stroke-width="0.8" fill="none" opacity="0.7"/>
  <path d="path171" stroke="#c5ff3d" stroke-width="0.8" fill="none" opacity="0.7"/>
  <path d="m 318.625,186.875 c 0.006,0.0327 0.0271,0.0606 0.0312,0.0937 l -0.0937,0.59375 -0.15625,0.1875 c -0.35098,0.12819 -0.68901,0.24878 -1,0.4375 l -0.375,0.0937 c -0.0721,0.0395 -0.14596,0.0954 -0.1875,0.15625 l -0.1875,0.46875 -0.0937,0.1875 c -0.0384,0.0858 -0.0782,0.16097 -0.0625,0.25 l 0.0937,0.40625 c 0.38177,1.26127 0.0578,2.86541 -1.28125,3.40625 -0.65752,0.26257 -1.44124,0.0806 -1.96875,0.625 -1.4699,1.53422 -0.33661,3.60007 -0.15625,5.375 0.0422,0.31133 -0.0413,0.62655 -0.25,0.875 -0.98985,1.16906 -1.80886,2.60424 -1.25,4.125 0.0116,0.0655 0.0932,0.10487 0.15625,0.0937 0.062,-0.01 0.10508,-0.092 0.0937,-0.15625 -0.58059,-1.63678 0.74864,-2.79335 1.59375,-4.03125 1.04213,-1.53785 -0.43857,-3.30036 -0.0625,-5 0.0765,-0.31822 0.26262,-0.68988 0.53125,-0.75 0.82366,-0.22428 1.67692,-0.28332 2.375,-0.84375 1.16141,-0.94814 1.48834,-2.48442 1.0625,-3.84375 l -0.0625,-0.34375 0.0625,-0.0937 c 0.0316,-0.0451 0.0281,-0.0708 0.0312,-0.125 l 0.0312,-0.0937 c 0.45363,-0.29921 1.08731,-0.25108 1.46875,-0.6875 l 0.1875,-0.1875 c 0.13567,-0.0622 0.20767,-0.21367 0.21875,-0.375 v -0.0937 c 0.0531,-0.1105 0.0193,-0.22984 0.0312,-0.34375 z" stroke="#c5ff3d" stroke-width="0.8" fill="none" opacity="0.7"/>
  <path d="m 306.03125,180.5625 c -0.0496,0.17263 -0.12318,0.30878 -0.15625,0.5 -0.0468,0.18293 0.0383,0.35902 0.21875,0.40625 0.16809,0.0494 0.35778,-0.0381 0.40625,-0.21875 0.0326,-0.17456 0.14338,-0.22173 0.1875,-0.375 z" stroke="#c5ff3d" stroke-width="0.8" fill="none" opacity="0.7"/>
  <path d="path175" stroke="#c5ff3d" stroke-width="0.8" fill="none" opacity="0.7"/>
  <path d="path177" stroke="#c5ff3d" stroke-width="0.8" fill="none" opacity="0.7"/>
  <path d="path179" stroke="#c5ff3d" stroke-width="0.8" fill="none" opacity="0.7"/>
  <path d="path181" stroke="#c5ff3d" stroke-width="0.8" fill="none" opacity="0.7"/>
  <path d="path183" stroke="#c5ff3d" stroke-width="0.8" fill="none" opacity="0.7"/>
  <path d="path185" stroke="#c5ff3d" stroke-width="0.8" fill="none" opacity="0.7"/>
  <path d="path187" stroke="#c5ff3d" stroke-width="0.8" fill="none" opacity="0.7"/>
  <path d="path189" stroke="#c5ff3d" stroke-width="0.8" fill="none" opacity="0.7"/>
  <path d="path191" stroke="#c5ff3d" stroke-width="0.8" fill="none" opacity="0.7"/>
  <path d="m 274.78125,262.09375 0.96875,0.8125 c -0.11248,-0.69211 0.22245,-1.42043 0.1875,-2.09375 -0.0674,-1.43784 0.5544,-2.8489 0.78125,-4.28125 0.0224,-0.097 -0.0456,-0.19874 -0.15625,-0.21875 -0.0968,-0.0212 -0.19873,0.0456 -0.21875,0.15625 h 0.0625 c -0.44411,1.31382 -1.17735,2.55279 -1.34375,3.9375 -0.0643,0.55461 -0.32053,1.1406 -0.28125,1.6875 z" stroke="#c5ff3d" stroke-width="0.8" fill="none" opacity="0.7"/>
  <path d="m 285.875,253.8125 c -0.0813,-0.0125 -0.17629,0.0752 -0.1875,0.15625 -0.71722,1.66671 -0.42166,3.60876 -1.3125,5.1875 l -0.1875,0.28125 c -0.044,0.0613 -0.0471,0.15973 -0.0312,0.25 l 0.0625,0.40625 c -0.0663,0.30367 0.17613,0.58401 0.0625,0.84375 -0.39961,0.97319 -1.20523,1.76772 -1.03125,2.90625 0.17295,1.20502 1.18144,2.23826 0.90625,3.46875 -0.0964,0.44366 -0.34573,0.73511 -0.625,0.96875 l 0.78125,0.59375 c 0.0996,-0.0784 0.2174,-0.0976 0.3125,-0.1875 0.68194,-0.65193 0.74387,-1.60498 0.46875,-2.5 -0.31263,-1.021 -1.03705,-1.96907 -0.8125,-3.03125 0.22237,-1.07454 1.19993,-2.01685 0.6875,-3.1875 l -0.0937,-0.3125 0.0625,-0.0937 c 0.80489,-1.7625 0.45478,-3.7317 1.09375,-5.53125 0.0226,-0.0958 -0.058,-0.19655 -0.15625,-0.21875 z" stroke="#c5ff3d" stroke-width="0.8" fill="none" opacity="0.7"/>
  <path d="path195" stroke="#c5ff3d" stroke-width="0.8" fill="none" opacity="0.7"/>
  <path d="path197" stroke="#c5ff3d" stroke-width="0.8" fill="none" opacity="0.7"/>
  <path d="path199" stroke="#c5ff3d" stroke-width="0.8" fill="none" opacity="0.7"/>
  <path d="path201" stroke="#c5ff3d" stroke-width="0.8" fill="none" opacity="0.7"/>
  <path d="path203" stroke="#c5ff3d" stroke-width="0.8" fill="none" opacity="0.7"/>
  <path d="path207" stroke="#c5ff3d" stroke-width="0.8" fill="none" opacity="0.7"/>
  <path d="path209" stroke="#c5ff3d" stroke-width="0.8" fill="none" opacity="0.7"/>
  <path d="path211" stroke="#c5ff3d" stroke-width="0.8" fill="none" opacity="0.7"/>
  <path d="path213" stroke="#c5ff3d" stroke-width="0.8" fill="none" opacity="0.7"/>
  <path d="path215" stroke="#c5ff3d" stroke-width="0.8" fill="none" opacity="0.7"/>
  <path d="path217" stroke="#c5ff3d" stroke-width="0.8" fill="none" opacity="0.7"/>
  <path d="path219" stroke="#c5ff3d" stroke-width="0.8" fill="none" opacity="0.7"/>
  <path d="path221" stroke="#c5ff3d" stroke-width="0.8" fill="none" opacity="0.7"/>
  <path d="path223" stroke="#c5ff3d" stroke-width="0.8" fill="none" opacity="0.7"/>
  <path d="path225" stroke="#c5ff3d" stroke-width="0.8" fill="none" opacity="0.7"/>
  <path d="path227" stroke="#c5ff3d" stroke-width="0.8" fill="none" opacity="0.7"/>
  <path d="path235" stroke="#c5ff3d" stroke-width="0.8" fill="none" opacity="0.7"/>
  <path d="path237" stroke="#c5ff3d" stroke-width="0.8" fill="none" opacity="0.7"/>
  <path d="path239" stroke="#c5ff3d" stroke-width="0.8" fill="none" opacity="0.7"/>
  <path d="path241" stroke="#c5ff3d" stroke-width="0.8" fill="none" opacity="0.7"/>
  <path d="path243" stroke="#c5ff3d" stroke-width="0.8" fill="none" opacity="0.7"/>
  <path d="path245" stroke="#c5ff3d" stroke-width="0.8" fill="none" opacity="0.7"/>
  <path d="path247" stroke="#c5ff3d" stroke-width="0.8" fill="none" opacity="0.7"/>
  <path d="path249" stroke="#c5ff3d" stroke-width="0.8" fill="none" opacity="0.7"/>
  <path d="path251" stroke="#c5ff3d" stroke-width="0.8" fill="none" opacity="0.7"/>
  <path d="path255" stroke="#c5ff3d" stroke-width="0.8" fill="none" opacity="0.7"/>
  <path d="path257" stroke="#c5ff3d" stroke-width="0.8" fill="none" opacity="0.7"/>
  <path d="path259" stroke="#c5ff3d" stroke-width="0.8" fill="none" opacity="0.7"/>
  <path d="path261" stroke="#c5ff3d" stroke-width="0.8" fill="none" opacity="0.7"/>
  <path d="path267" stroke="#c5ff3d" stroke-width="0.8" fill="none" opacity="0.7"/>
  <path d="path269" stroke="#c5ff3d" stroke-width="0.8" fill="none" opacity="0.7"/>
  <path d="path271" stroke="#c5ff3d" stroke-width="0.8" fill="none" opacity="0.7"/>
  <path d="path275" stroke="#c5ff3d" stroke-width="0.8" fill="none" opacity="0.7"/>
  <path d="path277" stroke="#c5ff3d" stroke-width="0.8" fill="none" opacity="0.7"/>
  <path d="path281" stroke="#c5ff3d" stroke-width="0.8" fill="none" opacity="0.7"/>
  <path d="path283" stroke="#c5ff3d" stroke-width="0.8" fill="none" opacity="0.7"/>
  <path d="path285" stroke="#c5ff3d" stroke-width="0.8" fill="none" opacity="0.7"/>
  <path d="path287" stroke="#c5ff3d" stroke-width="0.8" fill="none" opacity="0.7"/>
  <path d="path289" stroke="#c5ff3d" stroke-width="0.8" fill="none" opacity="0.7"/>
  <path d="path291" stroke="#c5ff3d" stroke-width="0.8" fill="none" opacity="0.7"/>
  <path d="path4650" stroke="#c5ff3d" stroke-width="1" fill="none" opacity="0.45"/>
</svg>
